<?xml version="1.0"?>
<svg width="400" height="300" xmlns="http://www.w3.org/2000/svg" xmlns:svg="http://www.w3.org/2000/svg">
    <!-- Created with SVG-edit - https://github.com/SVG-Edit/svgedit-->
    <title>logotipo</title>
    <g class="layer">
        <title>Layer 1</title>
        <line fill="#fff" id="svg_1" stroke="#000000" stroke-miterlimit="10" stroke-width="4px" x1="76" x2="135.5" y1="273.096262" y2="74.596262" />
        <path d="m53.5,64.596262c8.47,-2.44 225.86,-63.56 94,39c0,0 56,-21 -4,49c0,13 42,-55 74,-50" fill="none" id="svg_2" stroke="#000000" stroke-miterlimit="10" stroke-width="4px" />
        <path d="m178.5,130.596262s12,34 34,-11c11,-10 -2,48 54,-28s67,-52 67,-52" fill="none" id="svg_3" stroke="#000000" stroke-miterlimit="10" stroke-width="4px" />
        <path d="m318,106.596262c-39,-6 -37.5,23 -49.5,30s-35,-5 -45,11s-43,126 -43,126" fill="none" id="svg_4" stroke="#000000" stroke-miterlimit="10" stroke-width="4px" />
        <path d="m280.5,138.596262s17.72,18 34,-20c6,-11 -5,52 33,-1" fill="none" id="svg_5" stroke="#000000" stroke-miterlimit="10" stroke-width="4px" />
        <line fill="none" id="svg_6" stroke="#000000" stroke-miterlimit="10" stroke-width="4px" x1="120.5" x2="202.5" y1="166.596262" y2="166.596262" />
        <line fill="none" id="svg_7" stroke="#000000" stroke-miterlimit="10" stroke-width="4px" x1="40" x2="124" y1="201.596262" y2="201.596262" />
        <line fill="none" id="svg_8" stroke="#000000" stroke-miterlimit="10" stroke-width="4px" x1="224.5" x2="331.5" y1="166.596262" y2="166.596262" />
        <line fill="none" id="svg_9" stroke="#000000" stroke-miterlimit="10" stroke-width="4px" x1="75.28" x2="44.720001" y1="176.426262" y2="272.756267" />
        <line fill="none" id="svg_10" stroke="#000000" stroke-miterlimit="10" stroke-width="4px" x1="30" x2="114" y1="226.596262" y2="226.596262" />
    </g>
</svg>
